<svg width="24" height="24" viewBox="0 0 24 24" fill="none" xmlns="http://www.w3.org/2000/svg">
  <path d="M4 6C4 4.89543 4.89543 4 6 4H18C19.1046 4 20 4.89543 20 6V14C20 15.1046 19.1046 16 18 16H10L6 20V16H6C4.89543 16 4 15.1046 4 14V6Z" stroke="currentColor" stroke-width="1.8" stroke-linejoin="round"/>
  <path d="M9.5 8.5C9.5 7.39543 10.6193 6.5 12 6.5C13.3807 6.5 14.5 7.39543 14.5 8.5C14.5 9.35109 13.9309 10.0779 13.1218 10.3556C12.5636 10.5471 12 11.0053 12 11.6V12" stroke="currentColor" stroke-width="1.8" stroke-linecap="round" stroke-linejoin="round"/>
  <circle cx="12" cy="14.2" r="0.9" fill="currentColor"/>
</svg>
